<svg xmlns="http://www.w3.org/2000/svg" viewBox="0 0 64 64" fill="none">
  <defs>
    <linearGradient id="bg" x1="8" y1="6" x2="56" y2="58" gradientUnits="userSpaceOnUse">
      <stop stop-color="#34d399"/>
      <stop offset="1" stop-color="#16a35f"/>
    </linearGradient>
  </defs>
  <rect width="64" height="64" rx="16" fill="url(#bg)"/>
  <path fill="#fff" d="M18 44V24a6 6 0 0 1 6-6h2.2a6 6 0 0 1 6 6v2.2c0 1.8-.8 3.5-2.2 4.6l-1.4 1.1c1.4 1.1 2.2 2.8 2.2 4.6V44h-4.2v-7.5c0-1.2-.6-2.3-1.6-3L24.2 32l1.6-1.2c1-.7 1.6-1.8 1.6-3V24.8a2 2 0 0 0-2-2H24a2 2 0 0 0-2 2V44H18Z"/>
  <rect x="38" y="18" width="5.5" height="26" rx="2.75" fill="#fff"/>
  <circle cx="30" cy="22" r="2.2" fill="#fff"/>
  <circle cx="26" cy="28" r="2.2" fill="#fff"/>
  <circle cx="34" cy="28" r="2.2" fill="#fff"/>
  <path stroke="#fff" stroke-width="2.4" stroke-linecap="round" d="M30 30v6"/>
  <path stroke="#fff" stroke-width="2.4" stroke-linecap="round" d="M30 24v2"/>
</svg>
